<?xml version="1.0" encoding="iso-8859-1"?>
<!-- Generator: Adobe Illustrator 18.0.0, SVG Export Plug-In . SVG Version: 6.00 Build 0)  -->
<!DOCTYPE svg PUBLIC "-//W3C//DTD SVG 1.1//EN" "http://www.w3.org/Graphics/SVG/1.1/DTD/svg11.dtd">
<svg version="1.1" id="Capa_1" xmlns="http://www.w3.org/2000/svg" xmlns:xlink="http://www.w3.org/1999/xlink" x="0px" y="0px"
	 viewBox="0 0 170.698 170.698" style="enable-background:new 0 0 170.698 170.698;" xml:space="preserve">
<g>
	<path style="fill:#71CDDE;" d="M20.014,45.49c4.567,1.073,8.129,4.71,9.155,9.294h124.33c1.554,0,2.814,1.261,2.814,2.815v52.682
		h8.756V44.259H20.014V45.49z"/>
	<g>
		<path style="fill:#F16268;" d="M150.685,60.414H5.629v1.232c5.43,1.275,9.483,6.161,9.483,11.973c0,4.24-2.158,7.989-5.435,10.199
			c3.276,2.213,5.435,5.963,5.435,10.203c0,4.24-2.158,7.989-5.435,10.203c3.276,2.21,5.435,5.959,5.435,10.2
			c0,5.813-4.053,10.698-9.483,11.973v0.044h145.056V60.414z M136.639,100.221h-53.39c-1.037,0-1.876-0.839-1.876-1.876
			c0-1.037,0.839-1.876,1.876-1.876h53.39c1.037,0,1.877,0.839,1.877,1.876C138.516,99.382,137.676,100.221,136.639,100.221z
			 M138.516,106.95c0,1.037-0.84,1.877-1.877,1.877h-53.39c-1.037,0-1.876-0.839-1.876-1.877c0-1.037,0.839-1.876,1.876-1.876h53.39
			C137.676,105.074,138.516,105.913,138.516,106.95z M136.639,90.212H68.496c-1.037,0-1.876-0.839-1.876-1.876
			c0-1.038,0.839-1.876,1.876-1.876h68.143c1.037,0,1.877,0.839,1.877,1.876C138.516,89.374,137.676,90.212,136.639,90.212z
			 M138.516,75.513c0,1.037-0.84,1.877-1.877,1.877H27.05c-1.037,0-1.876-0.839-1.876-1.877c0-1.037,0.839-1.876,1.876-1.876
			h109.589C137.676,73.636,138.516,74.476,138.516,75.513z M136.639,117.432h-53.39c-1.037,0-1.876-0.839-1.876-1.876
			s0.839-1.877,1.876-1.877h53.39c1.037,0,1.877,0.839,1.877,1.877S137.676,117.432,136.639,117.432z"/>
	</g>
	<path style="fill:#FFFFFF;" d="M5.629,60.414l141.488,3.654l0.75,65.25l5-0.5l-0.25-70.5C152.617,58.317,9.391,58.76,5.629,60.414z
		"/>
	<path style="fill:#FFFFFF;" d="M19.629,44.164l141.488,3.654l0.75,65.25l5-0.5l-0.25-70.5
		C166.617,42.067,23.391,42.51,19.629,44.164z"/>
	<g>
		<path style="fill:#25555E;" d="M167.884,38.629H17.199c-1.554,0-2.814,1.261-2.814,2.815v6.534c0,1.554,1.261,2.815,2.814,2.815
			c2.725,0,5.066,1.646,6.1,3.991H2.814C1.261,54.784,0,56.045,0,57.599v6.534c0,1.554,1.261,2.814,2.814,2.814
			c3.678,0,6.668,2.991,6.668,6.67c0,3.679-2.99,6.67-6.668,6.67C1.261,80.288,0,81.549,0,83.103v1.433
			c0,1.554,1.261,2.815,2.814,2.815c3.678,0,6.668,2.99,6.668,6.67c0,3.679-2.99,6.67-6.668,6.67c-1.554,0-2.814,1.261-2.814,2.814
			v1.433c0,1.554,1.261,2.814,2.814,2.814c3.678,0,6.668,2.991,6.668,6.67c0,3.679-2.99,6.67-6.668,6.67
			c-1.554,0-2.814,1.261-2.814,2.814v5.347c0,1.554,1.261,2.814,2.814,2.814h150.685c1.554,0,2.814-1.261,2.814-2.814v-13.344h11.57
			c1.554,0,2.815-1.261,2.815-2.814V41.444C170.698,39.89,169.438,38.629,167.884,38.629z M165.069,110.281h-8.756V57.599
			c0-1.554-1.261-2.815-2.814-2.815H29.169c-1.026-4.583-4.588-8.221-9.155-9.294v-1.232h145.056V110.281z M5.629,126.44v-0.044
			c5.43-1.275,9.483-6.161,9.483-11.973c0-4.24-2.158-7.99-5.435-10.2c3.276-2.213,5.435-5.962,5.435-10.203
			c0-4.24-2.158-7.99-5.435-10.203c3.276-2.21,5.435-5.959,5.435-10.199c0-5.813-4.053-10.698-9.483-11.973v-1.232h145.056v66.026
			H5.629z"/>
	</g>
	<path style="fill:#25555E;" d="M27.05,73.636c-1.037,0-1.876,0.839-1.876,1.876c0,1.037,0.839,1.877,1.876,1.877h109.589
		c1.037,0,1.877-0.839,1.877-1.877c0-1.037-0.84-1.876-1.877-1.876H27.05z"/>
	<path style="fill:#25555E;" d="M136.639,86.46H68.496c-1.037,0-1.876,0.839-1.876,1.876c0,1.037,0.839,1.876,1.876,1.876h68.143
		c1.037,0,1.877-0.839,1.877-1.876C138.516,87.299,137.676,86.46,136.639,86.46z"/>
	<path style="fill:#25555E;" d="M136.639,96.468h-53.39c-1.037,0-1.876,0.839-1.876,1.876c0,1.037,0.839,1.876,1.876,1.876h53.39
		c1.037,0,1.877-0.839,1.877-1.876C138.516,97.308,137.676,96.468,136.639,96.468z"/>
	<path style="fill:#25555E;" d="M136.639,105.074h-53.39c-1.037,0-1.876,0.839-1.876,1.876c0,1.037,0.839,1.877,1.876,1.877h53.39
		c1.037,0,1.877-0.839,1.877-1.877C138.516,105.913,137.676,105.074,136.639,105.074z"/>
	<path style="fill:#25555E;" d="M138.516,115.555c0-1.037-0.84-1.877-1.877-1.877h-53.39c-1.037,0-1.876,0.839-1.876,1.877
		s0.839,1.876,1.876,1.876h53.39C137.676,117.432,138.516,116.592,138.516,115.555z"/>
</g>
<g>
</g>
<g>
</g>
<g>
</g>
<g>
</g>
<g>
</g>
<g>
</g>
<g>
</g>
<g>
</g>
<g>
</g>
<g>
</g>
<g>
</g>
<g>
</g>
<g>
</g>
<g>
</g>
<g>
</g>
</svg>
